%TF.GenerationSoftware,KiCad,Pcbnew,(6.0.2)*%
%TF.CreationDate,2022-05-07T22:53:05-07:00*%
%TF.ProjectId,Final_Project,46696e61-6c5f-4507-926f-6a6563742e6b,rev?*%
%TF.SameCoordinates,Original*%
%TF.FileFunction,Soldermask,Top*%
%TF.FilePolarity,Negative*%
%FSLAX46Y46*%
G04 Gerber Fmt 4.6, Leading zero omitted, Abs format (unit mm)*
G04 Created by KiCad (PCBNEW (6.0.2)) date 2022-05-07 22:53:05*
%MOMM*%
%LPD*%
G01*
G04 APERTURE LIST*
%ADD10C,4.064000*%
%ADD11C,1.222000*%
%ADD12R,1.222000X1.222000*%
%ADD13R,1.700000X1.000000*%
%ADD14R,1.020000X1.040000*%
%ADD15O,2.032000X1.727200*%
%ADD16R,0.600000X0.800000*%
%ADD17O,1.727200X2.032000*%
G04 APERTURE END LIST*
D10*
%TO.C,P6*%
X174498000Y-75565000D03*
%TD*%
D11*
%TO.C,VR1*%
X131318000Y-108585000D03*
X128778000Y-106045000D03*
D12*
X126238000Y-108585000D03*
%TD*%
D13*
%TO.C,S2*%
X177648000Y-114305000D03*
X171348000Y-114305000D03*
X171348000Y-118105000D03*
X177648000Y-118105000D03*
%TD*%
%TO.C,S1*%
X177648000Y-104145000D03*
X171348000Y-104145000D03*
X171348000Y-107945000D03*
X177648000Y-107945000D03*
%TD*%
D14*
%TO.C,R1*%
X161798000Y-84990000D03*
X161798000Y-86460000D03*
%TD*%
D15*
%TO.C,J1*%
X113538000Y-106045000D03*
X113538000Y-108585000D03*
X113538000Y-111125000D03*
X113538000Y-113665000D03*
X113538000Y-116205000D03*
X113538000Y-118745000D03*
%TD*%
D16*
%TO.C,D2*%
X167578000Y-83185000D03*
X166178000Y-83185000D03*
%TD*%
%TO.C,D1*%
X167578000Y-88265000D03*
X166178000Y-88265000D03*
%TD*%
D17*
%TO.C,P1*%
X127498000Y-123825000D03*
X130038000Y-123825000D03*
X132578000Y-123825000D03*
X135118000Y-123825000D03*
X137658000Y-123825000D03*
X140198000Y-123825000D03*
X142738000Y-123825000D03*
X145278000Y-123825000D03*
%TD*%
%TO.C,A0-A6*%
X151638000Y-123825000D03*
X154178000Y-123825000D03*
X156718000Y-123825000D03*
X159258000Y-123825000D03*
X161798000Y-123825000D03*
X164338000Y-123825000D03*
%TD*%
%TO.C,P3*%
X122408000Y-75565000D03*
X124948000Y-75565000D03*
X127488000Y-75565000D03*
X130028000Y-75565000D03*
X132568000Y-75565000D03*
X135108000Y-75565000D03*
X137648000Y-75565000D03*
X140188000Y-75565000D03*
X142728000Y-75565000D03*
X145268000Y-75565000D03*
%TD*%
%TO.C,Digital 1-8*%
X151638000Y-75565000D03*
X154178000Y-75565000D03*
X156718000Y-75565000D03*
X159258000Y-75565000D03*
X161798000Y-75565000D03*
X164338000Y-75565000D03*
X166878000Y-75565000D03*
X169418000Y-75565000D03*
%TD*%
D10*
%TO.C,P5*%
X113538000Y-123825000D03*
%TD*%
%TO.C,P6*%
X174498000Y-123825000D03*
%TD*%
%TO.C,P8*%
X113538000Y-75565000D03*
%TD*%
M02*
