%TF.GenerationSoftware,KiCad,Pcbnew,(6.0.2)*%
%TF.CreationDate,2022-05-07T22:53:04-07:00*%
%TF.ProjectId,Final_Project,46696e61-6c5f-4507-926f-6a6563742e6b,rev?*%
%TF.SameCoordinates,Original*%
%TF.FileFunction,Copper,L1,Top*%
%TF.FilePolarity,Positive*%
%FSLAX46Y46*%
G04 Gerber Fmt 4.6, Leading zero omitted, Abs format (unit mm)*
G04 Created by KiCad (PCBNEW (6.0.2)) date 2022-05-07 22:53:04*
%MOMM*%
%LPD*%
G01*
G04 APERTURE LIST*
%TA.AperFunction,ComponentPad*%
%ADD10C,4.064000*%
%TD*%
%TA.AperFunction,ComponentPad*%
%ADD11C,1.222000*%
%TD*%
%TA.AperFunction,ComponentPad*%
%ADD12R,1.222000X1.222000*%
%TD*%
%TA.AperFunction,SMDPad,CuDef*%
%ADD13R,1.700000X1.000000*%
%TD*%
%TA.AperFunction,SMDPad,CuDef*%
%ADD14R,1.020000X1.040000*%
%TD*%
%TA.AperFunction,ComponentPad*%
%ADD15O,2.032000X1.727200*%
%TD*%
%TA.AperFunction,SMDPad,CuDef*%
%ADD16R,0.600000X0.800000*%
%TD*%
%TA.AperFunction,ComponentPad*%
%ADD17O,1.727200X2.032000*%
%TD*%
%TA.AperFunction,Conductor*%
%ADD18C,0.250000*%
%TD*%
G04 APERTURE END LIST*
D10*
%TO.P,P6,1,Pin_1*%
%TO.N,N/C*%
X174498000Y-75565000D03*
%TD*%
D11*
%TO.P,VR1,3*%
%TO.N,GND*%
X131318000Y-108585000D03*
%TO.P,VR1,2*%
%TO.N,/A0*%
X128778000Y-106045000D03*
D12*
%TO.P,VR1,1*%
%TO.N,+5V*%
X126238000Y-108585000D03*
%TD*%
D13*
%TO.P,S2,2*%
%TO.N,unconnected-(S2-Pad2)*%
X177648000Y-114305000D03*
%TO.P,S2,1*%
%TO.N,GND*%
X171348000Y-114305000D03*
%TO.P,S2,3*%
%TO.N,/3(\u002A\u002A)*%
X171348000Y-118105000D03*
%TO.P,S2,4*%
%TO.N,unconnected-(S2-Pad4)*%
X177648000Y-118105000D03*
%TD*%
%TO.P,S1,2*%
%TO.N,unconnected-(S1-Pad2)*%
X177648000Y-104145000D03*
%TO.P,S1,1*%
%TO.N,GND*%
X171348000Y-104145000D03*
%TO.P,S1,3*%
%TO.N,/2*%
X171348000Y-107945000D03*
%TO.P,S1,4*%
%TO.N,unconnected-(S1-Pad4)*%
X177648000Y-107945000D03*
%TD*%
D14*
%TO.P,R1,1*%
%TO.N,Net-(D2-Pad1)*%
X161798000Y-84990000D03*
%TO.P,R1,2*%
%TO.N,Net-(D1-Pad1)*%
X161798000Y-86460000D03*
%TD*%
D15*
%TO.P,J1,1,Pin_1*%
%TO.N,+5V*%
X113538000Y-106045000D03*
%TO.P,J1,2,Pin_2*%
%TO.N,GND*%
X113538000Y-108585000D03*
%TO.P,J1,3,Pin_3*%
%TO.N,/A5(SCL)*%
X113538000Y-111125000D03*
%TO.P,J1,4,Pin_4*%
%TO.N,/A4(SDA)*%
X113538000Y-113665000D03*
%TO.P,J1,5,Pin_5*%
%TO.N,/AD0*%
X113538000Y-116205000D03*
%TO.P,J1,6,Pin_6*%
%TO.N,/CS*%
X113538000Y-118745000D03*
%TD*%
D16*
%TO.P,D2,2*%
%TO.N,/5(\u002A\u002A)*%
X167578000Y-83185000D03*
%TO.P,D2,1*%
%TO.N,Net-(D2-Pad1)*%
X166178000Y-83185000D03*
%TD*%
%TO.P,D1,2*%
%TO.N,/6(\u002A\u002A)*%
X167578000Y-88265000D03*
%TO.P,D1,1*%
%TO.N,Net-(D1-Pad1)*%
X166178000Y-88265000D03*
%TD*%
D17*
%TO.P,P1,1,Pin_1*%
%TO.N,unconnected-(P1-Pad1)*%
X127498000Y-123825000D03*
%TO.P,P1,2,Pin_2*%
%TO.N,/IOREF*%
X130038000Y-123825000D03*
%TO.P,P1,3,Pin_3*%
%TO.N,/Reset*%
X132578000Y-123825000D03*
%TO.P,P1,4,Pin_4*%
%TO.N,+3V3*%
X135118000Y-123825000D03*
%TO.P,P1,5,Pin_5*%
%TO.N,+5V*%
X137658000Y-123825000D03*
%TO.P,P1,6,Pin_6*%
%TO.N,GND*%
X140198000Y-123825000D03*
%TO.P,P1,7,Pin_7*%
X142738000Y-123825000D03*
%TO.P,P1,8,Pin_8*%
%TO.N,/Vin*%
X145278000Y-123825000D03*
%TD*%
%TO.P,A0-A6,1,Pin_1*%
%TO.N,/A0*%
X151638000Y-123825000D03*
%TO.P,A0-A6,2,Pin_2*%
%TO.N,/A1*%
X154178000Y-123825000D03*
%TO.P,A0-A6,3,Pin_3*%
%TO.N,/A2*%
X156718000Y-123825000D03*
%TO.P,A0-A6,4,Pin_4*%
%TO.N,/A3*%
X159258000Y-123825000D03*
%TO.P,A0-A6,5,Pin_5*%
%TO.N,/A4(SDA)*%
X161798000Y-123825000D03*
%TO.P,A0-A6,6,Pin_6*%
%TO.N,/A5(SCL)*%
X164338000Y-123825000D03*
%TD*%
%TO.P,P3,1,Pin_1*%
%TO.N,/A5(SCL)*%
X122408000Y-75565000D03*
%TO.P,P3,2,Pin_2*%
%TO.N,/A4(SDA)*%
X124948000Y-75565000D03*
%TO.P,P3,3,Pin_3*%
%TO.N,/AREF*%
X127488000Y-75565000D03*
%TO.P,P3,4,Pin_4*%
%TO.N,GND*%
X130028000Y-75565000D03*
%TO.P,P3,5,Pin_5*%
%TO.N,/13(SCK)*%
X132568000Y-75565000D03*
%TO.P,P3,6,Pin_6*%
%TO.N,/12(MISO)*%
X135108000Y-75565000D03*
%TO.P,P3,7,Pin_7*%
%TO.N,/11(\u002A\u002A{slash}MOSI)*%
X137648000Y-75565000D03*
%TO.P,P3,8,Pin_8*%
%TO.N,/10(\u002A\u002A{slash}SS)*%
X140188000Y-75565000D03*
%TO.P,P3,9,Pin_9*%
%TO.N,/9(\u002A\u002A)*%
X142728000Y-75565000D03*
%TO.P,P3,10,Pin_10*%
%TO.N,/8*%
X145268000Y-75565000D03*
%TD*%
%TO.P,Digital 1-8,1,Pin_1*%
%TO.N,/7*%
X151638000Y-75565000D03*
%TO.P,Digital 1-8,2,Pin_2*%
%TO.N,/6(\u002A\u002A)*%
X154178000Y-75565000D03*
%TO.P,Digital 1-8,3,Pin_3*%
%TO.N,/5(\u002A\u002A)*%
X156718000Y-75565000D03*
%TO.P,Digital 1-8,4,Pin_4*%
%TO.N,/4*%
X159258000Y-75565000D03*
%TO.P,Digital 1-8,5,Pin_5*%
%TO.N,/3(\u002A\u002A)*%
X161798000Y-75565000D03*
%TO.P,Digital 1-8,6,Pin_6*%
%TO.N,/2*%
X164338000Y-75565000D03*
%TO.P,Digital 1-8,7,Pin_7*%
%TO.N,/1(Tx)*%
X166878000Y-75565000D03*
%TO.P,Digital 1-8,8,Pin_8*%
%TO.N,/0(Rx)*%
X169418000Y-75565000D03*
%TD*%
D10*
%TO.P,P5,1,Pin_1*%
%TO.N,unconnected-(P5-Pad1)*%
X113538000Y-123825000D03*
%TD*%
%TO.P,P6,1,Pin_1*%
%TO.N,unconnected-(P6-Pad1)*%
X174498000Y-123825000D03*
%TD*%
%TO.P,P8,1,Pin_1*%
%TO.N,unconnected-(P8-Pad1)*%
X113538000Y-75565000D03*
%TD*%
D18*
%TO.N,/A4(SDA)*%
X159258000Y-121285000D02*
X161798000Y-123825000D01*
X152826120Y-123344225D02*
X154885345Y-121285000D01*
X154885345Y-121285000D02*
X159258000Y-121285000D01*
X151680615Y-125615040D02*
X152826120Y-124469535D01*
X125488040Y-125615040D02*
X151680615Y-125615040D01*
X152826120Y-124469535D02*
X152826120Y-123344225D01*
X113538000Y-113665000D02*
X125488040Y-125615040D01*
X111298440Y-84841905D02*
X121915865Y-74224480D01*
X113538000Y-113665000D02*
X111298440Y-111425440D01*
X111298440Y-111425440D02*
X111298440Y-84841905D01*
%TO.N,/A5(SCL)*%
X111747960Y-86225040D02*
X122408000Y-75565000D01*
X111747960Y-109334960D02*
X111747960Y-86225040D01*
X113538000Y-111125000D02*
X111747960Y-109334960D01*
%TO.N,GND*%
X112197480Y-107244480D02*
X113538000Y-108585000D01*
X128912893Y-104856880D02*
X112893465Y-104856880D01*
X112197480Y-105552865D02*
X112197480Y-107244480D01*
X131318000Y-107261987D02*
X128912893Y-104856880D01*
X131318000Y-108585000D02*
X131318000Y-107261987D01*
X112893465Y-104856880D02*
X112197480Y-105552865D01*
%TO.N,+5V*%
X123698000Y-106045000D02*
X126238000Y-108585000D01*
X113538000Y-106045000D02*
X123698000Y-106045000D01*
X126238000Y-112405000D02*
X137658000Y-123825000D01*
X126238000Y-108585000D02*
X126238000Y-112405000D01*
%TO.N,/A0*%
X150297480Y-125165520D02*
X151638000Y-123825000D01*
X141549880Y-120139893D02*
X141549880Y-124469535D01*
X128778000Y-107368013D02*
X141549880Y-120139893D01*
X141549880Y-124469535D02*
X142245865Y-125165520D01*
X128778000Y-106045000D02*
X128778000Y-107368013D01*
X142245865Y-125165520D02*
X150297480Y-125165520D01*
%TO.N,GND*%
X131318000Y-76855000D02*
X130028000Y-75565000D01*
X131318000Y-108585000D02*
X131318000Y-76855000D01*
%TO.N,/3(\u002A\u002A)*%
X163138520Y-74224480D02*
X161798000Y-75565000D01*
X167370135Y-74224480D02*
X163138520Y-74224480D01*
X168066120Y-74920465D02*
X167370135Y-74224480D01*
X172972031Y-81659030D02*
X168066120Y-76753119D01*
X171348000Y-118105000D02*
X172972031Y-116480969D01*
X172972031Y-116480969D02*
X172972031Y-81659030D01*
X168066120Y-76753119D02*
X168066120Y-74920465D01*
%TO.N,/2*%
X172522511Y-106770489D02*
X172522511Y-83749511D01*
X171348000Y-107945000D02*
X172522511Y-106770489D01*
X172522511Y-83749511D02*
X164338000Y-75565000D01*
%TO.N,GND*%
X141458000Y-108585000D02*
X142738000Y-109865000D01*
X131318000Y-108585000D02*
X141458000Y-108585000D01*
X144018000Y-108585000D02*
X169418000Y-108585000D01*
X142738000Y-109865000D02*
X144018000Y-108585000D01*
X142738000Y-123825000D02*
X142738000Y-109865000D01*
X169418000Y-106075000D02*
X171348000Y-104145000D01*
X169418000Y-112725000D02*
X169418000Y-106075000D01*
X170998000Y-114305000D02*
X169418000Y-112725000D01*
X171348000Y-114305000D02*
X170998000Y-114305000D01*
%TO.N,/5(\u002A\u002A)*%
X156718000Y-80645000D02*
X156718000Y-75565000D01*
X166878000Y-80645000D02*
X156718000Y-80645000D01*
X167578000Y-81345000D02*
X166878000Y-80645000D01*
X167578000Y-83185000D02*
X167578000Y-81345000D01*
%TO.N,/6(\u002A\u002A)*%
X154902511Y-88989511D02*
X154178000Y-88265000D01*
X166853489Y-88989511D02*
X154902511Y-88989511D01*
X167578000Y-88265000D02*
X166853489Y-88989511D01*
X154178000Y-88265000D02*
X154178000Y-75565000D01*
%TO.N,Net-(D1-Pad1)*%
X164373000Y-86460000D02*
X166178000Y-88265000D01*
X161798000Y-86460000D02*
X164373000Y-86460000D01*
%TO.N,Net-(D2-Pad1)*%
X164373000Y-84990000D02*
X166178000Y-83185000D01*
X161798000Y-84990000D02*
X164373000Y-84990000D01*
%TD*%
M02*
