%TF.GenerationSoftware,KiCad,Pcbnew,(6.0.2)*%
%TF.CreationDate,2022-05-07T22:53:04-07:00*%
%TF.ProjectId,Final_Project,46696e61-6c5f-4507-926f-6a6563742e6b,rev?*%
%TF.SameCoordinates,Original*%
%TF.FileFunction,Copper,L2,Bot*%
%TF.FilePolarity,Positive*%
%FSLAX46Y46*%
G04 Gerber Fmt 4.6, Leading zero omitted, Abs format (unit mm)*
G04 Created by KiCad (PCBNEW (6.0.2)) date 2022-05-07 22:53:04*
%MOMM*%
%LPD*%
G01*
G04 APERTURE LIST*
%TA.AperFunction,ComponentPad*%
%ADD10C,4.064000*%
%TD*%
%TA.AperFunction,ComponentPad*%
%ADD11C,1.222000*%
%TD*%
%TA.AperFunction,ComponentPad*%
%ADD12R,1.222000X1.222000*%
%TD*%
%TA.AperFunction,ComponentPad*%
%ADD13O,2.032000X1.727200*%
%TD*%
%TA.AperFunction,ComponentPad*%
%ADD14O,1.727200X2.032000*%
%TD*%
%TA.AperFunction,Conductor*%
%ADD15C,0.250000*%
%TD*%
G04 APERTURE END LIST*
D10*
%TO.P,P6,1,Pin_1*%
%TO.N,N/C*%
X174498000Y-75565000D03*
%TD*%
D11*
%TO.P,VR1,3*%
%TO.N,GND*%
X131318000Y-108585000D03*
%TO.P,VR1,2*%
%TO.N,/A0*%
X128778000Y-106045000D03*
D12*
%TO.P,VR1,1*%
%TO.N,+5V*%
X126238000Y-108585000D03*
%TD*%
D13*
%TO.P,J1,1,Pin_1*%
%TO.N,+5V*%
X113538000Y-106045000D03*
%TO.P,J1,2,Pin_2*%
%TO.N,GND*%
X113538000Y-108585000D03*
%TO.P,J1,3,Pin_3*%
%TO.N,/A5(SCL)*%
X113538000Y-111125000D03*
%TO.P,J1,4,Pin_4*%
%TO.N,/A4(SDA)*%
X113538000Y-113665000D03*
%TO.P,J1,5,Pin_5*%
%TO.N,/AD0*%
X113538000Y-116205000D03*
%TO.P,J1,6,Pin_6*%
%TO.N,/CS*%
X113538000Y-118745000D03*
%TD*%
D14*
%TO.P,P1,1,Pin_1*%
%TO.N,unconnected-(P1-Pad1)*%
X127498000Y-123825000D03*
%TO.P,P1,2,Pin_2*%
%TO.N,/IOREF*%
X130038000Y-123825000D03*
%TO.P,P1,3,Pin_3*%
%TO.N,/Reset*%
X132578000Y-123825000D03*
%TO.P,P1,4,Pin_4*%
%TO.N,+3V3*%
X135118000Y-123825000D03*
%TO.P,P1,5,Pin_5*%
%TO.N,+5V*%
X137658000Y-123825000D03*
%TO.P,P1,6,Pin_6*%
%TO.N,GND*%
X140198000Y-123825000D03*
%TO.P,P1,7,Pin_7*%
X142738000Y-123825000D03*
%TO.P,P1,8,Pin_8*%
%TO.N,/Vin*%
X145278000Y-123825000D03*
%TD*%
%TO.P,A0-A6,1,Pin_1*%
%TO.N,/A0*%
X151638000Y-123825000D03*
%TO.P,A0-A6,2,Pin_2*%
%TO.N,/A1*%
X154178000Y-123825000D03*
%TO.P,A0-A6,3,Pin_3*%
%TO.N,/A2*%
X156718000Y-123825000D03*
%TO.P,A0-A6,4,Pin_4*%
%TO.N,/A3*%
X159258000Y-123825000D03*
%TO.P,A0-A6,5,Pin_5*%
%TO.N,/A4(SDA)*%
X161798000Y-123825000D03*
%TO.P,A0-A6,6,Pin_6*%
%TO.N,/A5(SCL)*%
X164338000Y-123825000D03*
%TD*%
%TO.P,P3,1,Pin_1*%
%TO.N,/A5(SCL)*%
X122408000Y-75565000D03*
%TO.P,P3,2,Pin_2*%
%TO.N,/A4(SDA)*%
X124948000Y-75565000D03*
%TO.P,P3,3,Pin_3*%
%TO.N,/AREF*%
X127488000Y-75565000D03*
%TO.P,P3,4,Pin_4*%
%TO.N,GND*%
X130028000Y-75565000D03*
%TO.P,P3,5,Pin_5*%
%TO.N,/13(SCK)*%
X132568000Y-75565000D03*
%TO.P,P3,6,Pin_6*%
%TO.N,/12(MISO)*%
X135108000Y-75565000D03*
%TO.P,P3,7,Pin_7*%
%TO.N,/11(\u002A\u002A{slash}MOSI)*%
X137648000Y-75565000D03*
%TO.P,P3,8,Pin_8*%
%TO.N,/10(\u002A\u002A{slash}SS)*%
X140188000Y-75565000D03*
%TO.P,P3,9,Pin_9*%
%TO.N,/9(\u002A\u002A)*%
X142728000Y-75565000D03*
%TO.P,P3,10,Pin_10*%
%TO.N,/8*%
X145268000Y-75565000D03*
%TD*%
%TO.P,Digital 1-8,1,Pin_1*%
%TO.N,/7*%
X151638000Y-75565000D03*
%TO.P,Digital 1-8,2,Pin_2*%
%TO.N,/6(\u002A\u002A)*%
X154178000Y-75565000D03*
%TO.P,Digital 1-8,3,Pin_3*%
%TO.N,/5(\u002A\u002A)*%
X156718000Y-75565000D03*
%TO.P,Digital 1-8,4,Pin_4*%
%TO.N,/4*%
X159258000Y-75565000D03*
%TO.P,Digital 1-8,5,Pin_5*%
%TO.N,/3(\u002A\u002A)*%
X161798000Y-75565000D03*
%TO.P,Digital 1-8,6,Pin_6*%
%TO.N,/2*%
X164338000Y-75565000D03*
%TO.P,Digital 1-8,7,Pin_7*%
%TO.N,/1(Tx)*%
X166878000Y-75565000D03*
%TO.P,Digital 1-8,8,Pin_8*%
%TO.N,/0(Rx)*%
X169418000Y-75565000D03*
%TD*%
D10*
%TO.P,P5,1,Pin_1*%
%TO.N,unconnected-(P5-Pad1)*%
X113538000Y-123825000D03*
%TD*%
%TO.P,P6,1,Pin_1*%
%TO.N,unconnected-(P6-Pad1)*%
X174498000Y-123825000D03*
%TD*%
%TO.P,P8,1,Pin_1*%
%TO.N,unconnected-(P8-Pad1)*%
X113538000Y-75565000D03*
%TD*%
D15*
%TO.N,/A5(SCL)*%
X161997520Y-126165480D02*
X164338000Y-123825000D01*
X128005825Y-126165480D02*
X161997520Y-126165480D01*
X113538000Y-111697655D02*
X128005825Y-126165480D01*
X113538000Y-111125000D02*
X113538000Y-111697655D01*
%TD*%
M02*
